#N canvas 60 22 1271 724 10;
#X obj 825 220 print ERROR;
#X obj 714 187 convert.ascii2pd CR;
#N canvas 712 205 905 623 in&out 0;
#X obj 114 116 list-extend;
#X obj 191 77 sel 10;
#X msg 191 185 49 13;
#X obj 190 157 prepend set;
#X obj 193 236 gate;
#X msg 126 209 0;
#X msg 160 207 1;
#X obj 116 30 inlet;
#X obj 198 268 outlet;
#X obj 87 80 route 10;
#X connect 0 0 3 0;
#X connect 1 0 0 1;
#X connect 1 0 6 0;
#X connect 1 0 2 0;
#X connect 1 1 5 0;
#X connect 2 0 4 1;
#X connect 3 0 2 0;
#X connect 4 0 8 0;
#X connect 5 0 4 0;
#X connect 6 0 4 0;
#X connect 7 0 1 0;
#X connect 7 0 9 0;
#X connect 9 1 0 0;
#X restore 714 163 pd in&out;
#X floatatom 711 233 5 0 0 0 - - -;
#X obj 714 139 comport 2 9600;
#X msg 714 116 devices;
#X text 812 133 < change the numer 2 to the comport used by Arduino
;
#X text 777 116 < Click me to see what is connected to serial port
;
#X text 788 164 < click me to see what's in the sub patch;
#X text 847 188 < don't worry about this one!;
#X text 504 38 Arduino 2 Pd - communication protocole by recyclism
;
#X text 502 52 NOTE: You need to have the file convert.ascii2pd.pd
in the same folder as this patch;
#X text 851 244 < unpack each sensor vaule (or switches connected)
;
#X text 813 145 < change the numer 9600 to the boudrate used by Arduino
;
#X obj 398 614 *~;
#X obj 396 645 dac~;
#X obj 430 538 vsl 15 64 0 1 0 0 empty empty empty 0 -9 0 10 -262144
-1 -1 2800 1;
#X text 455 573 volume;
#X obj 714 209 unpack 0;
#N canvas 0 22 450 278 (subpatch) 0;
#X array sample 308112 float 2;
#X coords 0 1 308112 -1 200 140 1;
#X restore 288 42 graph;
#X obj 238 187 bng 15 250 50 0 empty empty empty 17 7 0 10 -262144
-1 -1;
#X obj 238 207 openpanel;
#X msg 238 232 read -resize \$1 sample;
#X obj 239 256 soundfiler;
#X floatatom 249 281 13 0 0 0 - - -;
#X obj 240 332 expr 44100 / $f1;
#X obj 249 307 s sampleSize;
#X floatatom 257 393 13 0 0 0 - - -;
#X obj 250 434 phasor~;
#X obj 266 455 r sampleSize;
#X obj 251 481 *~;
#X obj 246 550 tabread4~ sample;
#X obj 614 461 snapshot~;
#X obj 615 434 metro 50;
#X obj 615 406 tgl 15 0 empty empty empty 17 7 0 10 -262144 -1 -1 0
1;
#X floatatom 612 490 13 0 0 0 - - -;
#X obj 646 511 r sampleSize;
#X obj 611 534 /;
#X floatatom 610 556 13 0 0 0 - - -;
#X obj 612 580 hsl 195 15 0 1 0 0 empty empty empty -2 -8 0 10 -262144
-1 -1 0 1;
#X obj 537 300 hsl 128 15 0 1 0 0 empty empty empty -2 -8 0 10 -262144
-1 -1 13 1;
#X floatatom 528 327 5 0 0 0 - - -;
#X obj 706 255 autoscale 0 0.2;
#X msg 192 401 0.14313;
#X text 167 315 original speed;
#X obj 455 377 spigot;
#X obj 468 313 tgl 15 0 empty empty empty 17 7 0 10 -262144 -1 -1 0
1;
#X obj 400 326 == 0;
#X connect 1 0 18 0;
#X connect 1 2 0 0;
#X connect 2 0 1 0;
#X connect 3 0 42 0;
#X connect 4 0 2 0;
#X connect 5 0 4 0;
#X connect 14 0 15 0;
#X connect 14 0 15 1;
#X connect 16 0 14 1;
#X connect 18 0 3 0;
#X connect 20 0 21 0;
#X connect 21 0 22 0;
#X connect 22 0 23 0;
#X connect 23 0 25 0;
#X connect 23 0 24 0;
#X connect 24 0 26 0;
#X connect 25 0 27 0;
#X connect 25 0 28 0;
#X connect 28 0 30 0;
#X connect 29 0 30 1;
#X connect 30 0 31 0;
#X connect 30 0 32 0;
#X connect 31 0 14 0;
#X connect 32 0 35 0;
#X connect 33 0 32 0;
#X connect 34 0 33 0;
#X connect 35 0 37 0;
#X connect 36 0 37 1;
#X connect 37 0 38 0;
#X connect 38 0 39 0;
#X connect 40 0 41 0;
#X connect 41 0 45 0;
#X connect 42 0 40 0;
#X connect 43 0 28 0;
#X connect 45 0 28 0;
#X connect 46 0 45 1;
#X connect 46 0 47 0;
#X connect 47 0 43 0;
