#N canvas 78 22 1271 724 10;
#X obj 972 181 print ERROR;
#X obj 861 148 convert.ascii2pd CR;
#N canvas 712 205 905 623 in&out 0;
#X obj 114 116 list-extend;
#X obj 191 77 sel 10;
#X msg 191 185 48 13;
#X obj 190 157 prepend set;
#X obj 193 236 gate;
#X msg 126 209 0;
#X msg 160 207 1;
#X obj 116 30 inlet;
#X obj 198 268 outlet;
#X obj 87 80 route 10;
#X connect 0 0 3 0;
#X connect 1 0 0 1;
#X connect 1 0 6 0;
#X connect 1 0 2 0;
#X connect 1 1 5 0;
#X connect 2 0 4 1;
#X connect 3 0 2 0;
#X connect 4 0 8 0;
#X connect 5 0 4 0;
#X connect 6 0 4 0;
#X connect 7 0 1 0;
#X connect 7 0 9 0;
#X connect 9 1 0 0;
#X restore 861 111 pd in&out;
#X obj 836 227 unpack 0 0 0 0 0 0 0;
#X floatatom 832 272 5 0 0 0 - - -;
#X floatatom 856 302 5 0 0 0 - - -;
#X floatatom 876 273 5 0 0 0 - - -;
#X obj 861 76 comport 2 9600;
#X msg 827 27 devices;
#X text 959 70 < change the numer 2 to the comport used by Arduino
;
#X text 890 27 < Click me to see what is connected to serial port;
#X text 935 112 < click me to see what's in the sub patch;
#X text 994 149 < don't worry about this one!;
#X floatatom 896 303 5 0 0 0 - - -;
#X floatatom 920 272 5 0 0 0 - - -;
#X floatatom 940 303 5 0 0 0 - - -;
#X text 294 30 Arduino 2 Pd - communication protocole by recyclism
;
#X text 293 67 NOTE: You need to have the file convert.ascii2pd.pd
in the same folder as this patch;
#X text 972 229 < unpack each sensor vaule (or switches connected)
;
#X text 960 82 < change the numer 9600 to the boudrate used by Arduino
;
#X obj 574 467 bng 15 250 50 0 empty empty empty 17 7 0 10 -262144
-1 -1;
#X obj 590 467 bng 15 250 50 0 empty empty empty 17 7 0 10 -262144
-1 -1;
#X obj 606 467 bng 15 250 50 0 empty empty empty 17 7 0 10 -262144
-1 -1;
#X obj 622 467 bng 15 250 50 0 empty empty empty 17 7 0 10 -262144
-1 -1;
#X obj 638 467 bng 15 250 50 0 empty empty empty 17 7 0 10 -262144
-1 -1;
#X obj 670 467 bng 15 250 50 0 empty empty empty 17 7 0 10 -262144
-1 -1;
#X obj 654 467 bng 15 250 50 0 empty empty empty 17 7 0 10 -262144
-1 -1;
#X obj 686 467 bng 15 250 50 0 empty empty empty 17 7 0 10 -262144
-1 -1;
#X obj 92 547 vline~ 0;
#X obj 18 547 osc~ 261.63;
#X obj 51 573 *~;
#X obj 67 615 dac~;
#X floatatom 512 98 5 0 0 0 - - -;
#X obj 239 550 vline~ 0;
#X obj 198 576 *~;
#X obj 214 618 dac~;
#X obj 165 550 osc~ 293.66;
#X obj 383 554 vline~ 0;
#X obj 342 580 *~;
#X obj 358 622 dac~;
#X obj 525 560 vline~ 0;
#X obj 484 586 *~;
#X obj 500 628 dac~;
#X obj 309 554 osc~ 329.63;
#X obj 668 562 vline~ 0;
#X obj 627 588 *~;
#X obj 643 630 dac~;
#X obj 813 563 vline~ 0;
#X obj 772 589 *~;
#X obj 788 631 dac~;
#X obj 958 563 vline~ 0;
#X obj 917 589 *~;
#X obj 933 631 dac~;
#X obj 1105 567 vline~ 0;
#X obj 1064 593 *~;
#X obj 1080 635 dac~;
#X msg 239 527 1 50 \, 0 0 50;
#X msg 383 531 1 50 \, 0 0 50;
#X msg 525 537 1 50 \, 0 0 50;
#X msg 668 539 1 50 \, 0 0 50;
#X msg 813 540 1 50 \, 0 0 50;
#X msg 958 540 1 50 \, 0 0 50;
#X msg 1105 544 1 50 \, 0 0 50;
#X msg 93 526 1 50 \, 0 0 50;
#X obj 46 240 &&;
#X floatatom 42 265 5 0 0 0 - - -;
#X obj 8 341 bng 15 250 50 0 empty empty empty 17 7 0 10 -262144 -1
-1;
#X obj 9 301 spigot;
#X obj 6 281 bng 15 250 50 0 empty empty empty 17 7 0 10 -262144 -1
-1;
#X floatatom 48 183 5 0 0 0 - - -;
#X obj 137 240 &&;
#X floatatom 133 265 5 0 0 0 - - -;
#X obj 99 341 bng 15 250 50 0 empty empty empty 17 7 0 10 -262144 -1
-1;
#X obj 100 301 spigot;
#X obj 97 281 bng 15 250 50 0 empty empty empty 17 7 0 10 -262144 -1
-1;
#X floatatom 139 183 5 0 0 0 - - -;
#X obj 227 241 &&;
#X floatatom 223 266 5 0 0 0 - - -;
#X obj 189 342 bng 15 250 50 0 empty empty empty 17 7 0 10 -262144
-1 -1;
#X obj 190 302 spigot;
#X obj 187 282 bng 15 250 50 0 empty empty empty 17 7 0 10 -262144
-1 -1;
#X floatatom 229 184 5 0 0 0 - - -;
#X obj 314 243 &&;
#X floatatom 310 268 5 0 0 0 - - -;
#X obj 276 344 bng 15 250 50 0 empty empty empty 17 7 0 10 -262144
-1 -1;
#X obj 277 304 spigot;
#X obj 274 284 bng 15 250 50 0 empty empty empty 17 7 0 10 -262144
-1 -1;
#X floatatom 316 186 5 0 0 0 - - -;
#X obj 399 243 &&;
#X floatatom 395 268 5 0 0 0 - - -;
#X obj 361 344 bng 15 250 50 0 empty empty empty 17 7 0 10 -262144
-1 -1;
#X obj 362 304 spigot;
#X obj 359 284 bng 15 250 50 0 empty empty empty 17 7 0 10 -262144
-1 -1;
#X floatatom 401 186 5 0 0 0 - - -;
#X obj 486 249 &&;
#X floatatom 482 274 5 0 0 0 - - -;
#X obj 448 350 bng 15 250 50 0 empty empty empty 17 7 0 10 -262144
-1 -1;
#X obj 449 310 spigot;
#X obj 446 290 bng 15 250 50 0 empty empty empty 17 7 0 10 -262144
-1 -1;
#X floatatom 488 192 5 0 0 0 - - -;
#X obj 582 249 &&;
#X floatatom 578 274 5 0 0 0 - - -;
#X obj 545 310 spigot;
#X floatatom 584 192 5 0 0 0 - - -;
#X obj 669 255 &&;
#X floatatom 665 280 5 0 0 0 - - -;
#X obj 631 356 bng 15 250 50 0 empty empty empty 17 7 0 10 -262144
-1 -1;
#X obj 632 316 spigot;
#X obj 629 296 bng 15 250 50 0 empty empty empty 17 7 0 10 -262144
-1 -1;
#X floatatom 671 198 5 0 0 0 - - -;
#X obj 551 350 bng 15 250 50 0 empty empty empty 17 7 0 10 -262144
-1 -1;
#X obj 24 215 > 100;
#X obj 69 216 < 200;
#X obj 115 215 > 200;
#X obj 160 216 < 300;
#X obj 205 216 > 300;
#X obj 250 217 < 400;
#X obj 292 218 > 400;
#X obj 337 219 < 500;
#X obj 377 218 > 500;
#X obj 422 219 < 600;
#X obj 464 224 > 600;
#X obj 509 225 < 700;
#X obj 560 224 > 700;
#X obj 605 225 < 800;
#X obj 647 230 > 800;
#X obj 692 231 < 1100;
#X obj 451 560 osc~ 392;
#X obj 594 562 osc~ 440;
#X obj 739 563 osc~ 523.25;
#X obj 884 563 osc~ 587.33;
#X obj 1031 567 osc~ 659.25;
#X connect 1 0 3 0;
#X connect 1 2 0 0;
#X connect 2 0 1 0;
#X connect 3 0 4 0;
#X connect 3 1 5 0;
#X connect 3 2 6 0;
#X connect 3 3 13 0;
#X connect 3 4 14 0;
#X connect 3 5 15 0;
#X connect 4 0 32 0;
#X connect 7 0 2 0;
#X connect 8 0 7 0;
#X connect 20 0 63 0;
#X connect 21 0 56 0;
#X connect 22 0 57 0;
#X connect 23 0 58 0;
#X connect 24 0 59 0;
#X connect 25 0 61 0;
#X connect 26 0 60 0;
#X connect 27 0 62 0;
#X connect 28 0 30 1;
#X connect 29 0 30 0;
#X connect 30 0 31 0;
#X connect 30 0 31 1;
#X connect 32 0 69 0;
#X connect 32 0 75 0;
#X connect 32 0 81 0;
#X connect 32 0 87 0;
#X connect 32 0 93 0;
#X connect 32 0 99 0;
#X connect 32 0 103 0;
#X connect 32 0 109 0;
#X connect 33 0 34 1;
#X connect 34 0 35 0;
#X connect 34 0 35 1;
#X connect 36 0 34 0;
#X connect 37 0 38 1;
#X connect 38 0 39 0;
#X connect 38 0 39 1;
#X connect 40 0 41 1;
#X connect 41 0 42 0;
#X connect 41 0 42 1;
#X connect 43 0 38 0;
#X connect 44 0 45 1;
#X connect 45 0 46 0;
#X connect 45 0 46 1;
#X connect 47 0 48 1;
#X connect 48 0 49 0;
#X connect 48 0 49 1;
#X connect 50 0 51 1;
#X connect 51 0 52 0;
#X connect 51 0 52 1;
#X connect 53 0 54 1;
#X connect 54 0 55 0;
#X connect 54 0 55 1;
#X connect 56 0 33 0;
#X connect 57 0 37 0;
#X connect 58 0 40 0;
#X connect 59 0 44 0;
#X connect 60 0 47 0;
#X connect 61 0 50 0;
#X connect 62 0 53 0;
#X connect 63 0 28 0;
#X connect 64 0 65 0;
#X connect 65 0 67 1;
#X connect 65 0 68 0;
#X connect 66 0 20 0;
#X connect 67 0 66 0;
#X connect 68 0 67 0;
#X connect 69 0 111 0;
#X connect 69 0 112 0;
#X connect 70 0 71 0;
#X connect 71 0 73 1;
#X connect 71 0 74 0;
#X connect 72 0 21 0;
#X connect 73 0 72 0;
#X connect 74 0 73 0;
#X connect 75 0 113 0;
#X connect 75 0 114 0;
#X connect 76 0 77 0;
#X connect 77 0 79 1;
#X connect 77 0 80 0;
#X connect 78 0 22 0;
#X connect 79 0 78 0;
#X connect 80 0 79 0;
#X connect 81 0 115 0;
#X connect 81 0 116 0;
#X connect 82 0 83 0;
#X connect 83 0 85 1;
#X connect 83 0 86 0;
#X connect 84 0 23 0;
#X connect 85 0 84 0;
#X connect 86 0 85 0;
#X connect 87 0 117 0;
#X connect 87 0 118 0;
#X connect 88 0 89 0;
#X connect 89 0 91 1;
#X connect 89 0 92 0;
#X connect 90 0 24 0;
#X connect 91 0 90 0;
#X connect 92 0 91 0;
#X connect 93 0 119 0;
#X connect 93 0 120 0;
#X connect 94 0 95 0;
#X connect 95 0 97 1;
#X connect 95 0 98 0;
#X connect 96 0 26 0;
#X connect 97 0 96 0;
#X connect 98 0 97 0;
#X connect 99 0 121 0;
#X connect 99 0 122 0;
#X connect 100 0 101 0;
#X connect 101 0 102 1;
#X connect 102 0 110 0;
#X connect 103 0 123 0;
#X connect 103 0 124 0;
#X connect 104 0 105 0;
#X connect 105 0 107 1;
#X connect 105 0 108 0;
#X connect 106 0 27 0;
#X connect 107 0 106 0;
#X connect 108 0 107 0;
#X connect 109 0 125 0;
#X connect 109 0 126 0;
#X connect 110 0 25 0;
#X connect 111 0 64 0;
#X connect 112 0 64 1;
#X connect 113 0 70 0;
#X connect 114 0 70 1;
#X connect 115 0 76 0;
#X connect 116 0 76 1;
#X connect 117 0 82 0;
#X connect 118 0 82 1;
#X connect 119 0 88 0;
#X connect 120 0 88 1;
#X connect 121 0 94 0;
#X connect 122 0 94 1;
#X connect 123 0 100 0;
#X connect 124 0 100 1;
#X connect 125 0 104 0;
#X connect 126 0 104 1;
#X connect 127 0 41 0;
#X connect 128 0 45 0;
#X connect 129 0 48 0;
#X connect 130 0 51 0;
#X connect 131 0 54 0;
