#N canvas 158 68 1271 724 10;
#X obj 615 212 print ERROR;
#X obj 504 179 convert.ascii2pd CR;
#N canvas 712 205 905 623 in&out 0;
#X obj 114 116 list-extend;
#X obj 191 77 sel 10;
#X msg 191 185 48 13;
#X obj 190 157 prepend set;
#X obj 193 236 gate;
#X msg 126 209 0;
#X msg 160 207 1;
#X obj 116 30 inlet;
#X obj 198 268 outlet;
#X obj 87 80 route 10;
#X connect 0 0 3 0;
#X connect 1 0 0 1;
#X connect 1 0 6 0;
#X connect 1 0 2 0;
#X connect 1 1 5 0;
#X connect 2 0 4 1;
#X connect 3 0 2 0;
#X connect 4 0 8 0;
#X connect 5 0 4 0;
#X connect 6 0 4 0;
#X connect 7 0 1 0;
#X connect 7 0 9 0;
#X connect 9 1 0 0;
#X restore 504 155 pd in&out;
#X floatatom 511 275 5 0 0 0 - - -;
#X obj 504 131 comport 2 9600;
#X msg 504 108 devices;
#X text 602 125 < change the numer 2 to the comport used by Arduino
;
#X text 567 108 < Click me to see what is connected to serial port
;
#X text 578 156 < click me to see what's in the sub patch;
#X text 637 180 < don't worry about this one!;
#X text 294 30 Arduino 2 Pd - communication protocole by recyclism
;
#X text 292 44 NOTE: You need to have the file convert.ascii2pd.pd
in the same folder as this patch;
#X text 641 236 < unpack each sensor vaule (or switches connected)
;
#X text 603 137 < change the numer 9600 to the boudrate used by Arduino
;
#X obj 506 554 *~;
#X obj 504 585 dac~;
#X obj 506 509 osc~;
#X obj 503 481 +~;
#X floatatom 294 432 5 0 0 0 - - -;
#X obj 518 455 *~;
#X floatatom 638 449 5 0 0 0 - - -;
#X text 502 368 Mod Frequency;
#X obj 518 429 osc~;
#X floatatom 520 405 5 0 0 0 - - -;
#X msg 295 398 440;
#X obj 242 371 loadbang;
#X floatatom 764 332 5 0 0 0 - - -;
#X text 337 390 Carrier Frequency (Feel free to change!);
#X text 678 421 Modulation Index;
#X obj 561 491 vsl 15 64 0 1 0 0 empty empty empty 0 -9 0 10 -262144
-1 -1 700 1;
#X text 591 509 volume;
#X obj 642 411 / 2;
#X obj 505 234 unpack 0;
#X obj 644 359 autoscale 2 20;
#X connect 1 0 32 0;
#X connect 1 2 0 0;
#X connect 2 0 1 0;
#X connect 3 0 26 0;
#X connect 3 0 18 0;
#X connect 4 0 2 0;
#X connect 5 0 4 0;
#X connect 14 0 15 0;
#X connect 14 0 15 1;
#X connect 16 0 14 0;
#X connect 17 0 16 0;
#X connect 18 0 17 0;
#X connect 19 0 17 1;
#X connect 20 0 19 1;
#X connect 22 0 19 0;
#X connect 23 0 22 0;
#X connect 24 0 18 0;
#X connect 25 0 24 0;
#X connect 26 0 31 0;
#X connect 26 0 33 0;
#X connect 29 0 14 1;
#X connect 31 0 20 0;
#X connect 32 0 3 0;
#X connect 33 0 23 0;
