#N canvas 51 52 1271 724 10;
#X obj 747 265 print ERROR;
#X obj 636 232 convert.ascii2pd CR;
#N canvas 712 205 905 623 in&out 0;
#X obj 114 116 list-extend;
#X obj 191 77 sel 10;
#X msg 191 185 48 13;
#X obj 190 157 prepend set;
#X obj 193 236 gate;
#X msg 126 209 0;
#X msg 160 207 1;
#X obj 116 30 inlet;
#X obj 198 268 outlet;
#X obj 87 80 route 10;
#X connect 0 0 3 0;
#X connect 1 0 0 1;
#X connect 1 0 6 0;
#X connect 1 0 2 0;
#X connect 1 1 5 0;
#X connect 2 0 4 1;
#X connect 3 0 2 0;
#X connect 4 0 8 0;
#X connect 5 0 4 0;
#X connect 6 0 4 0;
#X connect 7 0 1 0;
#X connect 7 0 9 0;
#X connect 9 1 0 0;
#X restore 636 195 pd in&out;
#X obj 611 311 unpack 0 0 0 0 0 0 0;
#X floatatom 607 356 5 0 0 0 - - -;
#X floatatom 631 386 5 0 0 0 - - -;
#X floatatom 651 357 5 0 0 0 - - -;
#X obj 636 160 comport 2 9600;
#X msg 602 111 devices;
#X text 734 154 < change the numer 2 to the comport used by Arduino
;
#X text 665 111 < Click me to see what is connected to serial port
;
#X text 710 196 < click me to see what's in the sub patch;
#X text 769 233 < don't worry about this one!;
#X floatatom 671 387 5 0 0 0 - - -;
#X floatatom 695 356 5 0 0 0 - - -;
#X floatatom 715 387 5 0 0 0 - - -;
#X text 294 30 Arduino 2 Pd - communication protocole by recyclism
;
#X text 293 67 NOTE: You need to have the file convert.ascii2pd.pd
in the same folder as this patch;
#X text 747 313 < unpack each sensor vaule (or switches connected)
;
#X text 735 166 < change the numer 9600 to the boudrate used by Arduino
;
#X obj 574 435 select 1 2 3 4 5 6 7 8;
#X obj 574 467 bng 15 250 50 0 empty empty empty 17 7 0 10 -262144
-1 -1;
#X obj 590 467 bng 15 250 50 0 empty empty empty 17 7 0 10 -262144
-1 -1;
#X obj 606 467 bng 15 250 50 0 empty empty empty 17 7 0 10 -262144
-1 -1;
#X obj 622 467 bng 15 250 50 0 empty empty empty 17 7 0 10 -262144
-1 -1;
#X obj 638 467 bng 15 250 50 0 empty empty empty 17 7 0 10 -262144
-1 -1;
#X obj 670 467 bng 15 250 50 0 empty empty empty 17 7 0 10 -262144
-1 -1;
#X obj 654 467 bng 15 250 50 0 empty empty empty 17 7 0 10 -262144
-1 -1;
#X obj 686 467 bng 15 250 50 0 empty empty empty 17 7 0 10 -262144
-1 -1;
#X floatatom 269 157 5 0 0 0 - - -;
#X obj 92 547 vline~ 0;
#X obj 18 547 osc~ 261.63;
#X obj 51 573 *~;
#X obj 67 615 dac~;
#X floatatom 540 393 5 0 0 0 - - -;
#X obj 239 550 vline~ 0;
#X obj 198 576 *~;
#X obj 214 618 dac~;
#X obj 165 550 osc~ 293.66;
#X obj 383 554 vline~ 0;
#X obj 342 580 *~;
#X obj 358 622 dac~;
#X obj 525 560 vline~ 0;
#X obj 484 586 *~;
#X obj 500 628 dac~;
#X obj 309 554 osc~ 329.63;
#X obj 451 560 osc~ 349.23;
#X obj 668 562 vline~ 0;
#X obj 627 588 *~;
#X obj 643 630 dac~;
#X obj 813 563 vline~ 0;
#X obj 772 589 *~;
#X obj 788 631 dac~;
#X obj 958 563 vline~ 0;
#X obj 917 589 *~;
#X obj 933 631 dac~;
#X obj 1105 567 vline~ 0;
#X obj 1064 593 *~;
#X obj 1080 635 dac~;
#X obj 594 562 osc~ 392;
#X obj 739 563 osc~ 440;
#X obj 884 563 osc~ 493.88;
#X obj 1031 567 osc~ 523.25;
#X msg 239 527 1 50 \, 0 0 50;
#X msg 383 531 1 50 \, 0 0 50;
#X msg 525 537 1 50 \, 0 0 50;
#X msg 668 539 1 50 \, 0 0 50;
#X msg 813 540 1 50 \, 0 0 50;
#X msg 958 540 1 50 \, 0 0 50;
#X msg 1105 544 1 50 \, 0 0 50;
#X msg 93 526 1 50 \, 0 0 50;
#X obj 245 189 > 200;
#X obj 267 214 &&;
#X obj 290 190 < 400;
#X floatatom 263 239 5 0 0 0 - - -;
#X obj 229 315 bng 15 250 50 0 empty empty empty 17 7 0 10 -262144
-1 -1;
#X obj 230 275 spigot;
#X obj 227 255 bng 15 250 50 0 empty empty empty 17 7 0 10 -262144
-1 -1;
#X connect 1 0 3 0;
#X connect 1 2 0 0;
#X connect 2 0 1 0;
#X connect 3 0 4 0;
#X connect 3 1 5 0;
#X connect 3 2 6 0;
#X connect 3 3 13 0;
#X connect 3 4 14 0;
#X connect 3 5 15 0;
#X connect 4 0 34 0;
#X connect 7 0 2 0;
#X connect 8 0 7 0;
#X connect 20 0 21 0;
#X connect 20 1 22 0;
#X connect 20 2 23 0;
#X connect 20 3 24 0;
#X connect 20 4 25 0;
#X connect 20 5 27 0;
#X connect 20 6 26 0;
#X connect 20 7 28 0;
#X connect 21 0 70 0;
#X connect 22 0 63 0;
#X connect 23 0 64 0;
#X connect 24 0 65 0;
#X connect 25 0 66 0;
#X connect 26 0 68 0;
#X connect 27 0 67 0;
#X connect 28 0 69 0;
#X connect 29 0 71 0;
#X connect 29 0 73 0;
#X connect 30 0 32 1;
#X connect 31 0 32 0;
#X connect 32 0 33 0;
#X connect 32 0 33 1;
#X connect 34 0 20 0;
#X connect 35 0 36 1;
#X connect 36 0 37 0;
#X connect 36 0 37 1;
#X connect 38 0 36 0;
#X connect 39 0 40 1;
#X connect 40 0 41 0;
#X connect 40 0 41 1;
#X connect 42 0 43 1;
#X connect 43 0 44 0;
#X connect 43 0 44 1;
#X connect 45 0 40 0;
#X connect 46 0 43 0;
#X connect 47 0 48 1;
#X connect 48 0 49 0;
#X connect 48 0 49 1;
#X connect 50 0 51 1;
#X connect 51 0 52 0;
#X connect 51 0 52 1;
#X connect 53 0 54 1;
#X connect 54 0 55 0;
#X connect 54 0 55 1;
#X connect 56 0 57 1;
#X connect 57 0 58 0;
#X connect 57 0 58 1;
#X connect 59 0 48 0;
#X connect 60 0 51 0;
#X connect 61 0 54 0;
#X connect 62 0 57 0;
#X connect 63 0 35 0;
#X connect 64 0 39 0;
#X connect 65 0 42 0;
#X connect 66 0 47 0;
#X connect 67 0 50 0;
#X connect 68 0 53 0;
#X connect 69 0 56 0;
#X connect 70 0 30 0;
#X connect 71 0 72 0;
#X connect 72 0 74 0;
#X connect 73 0 72 1;
#X connect 74 0 76 1;
#X connect 74 0 77 0;
#X connect 75 0 21 0;
#X connect 76 0 75 0;
#X connect 77 0 76 0;
